<?xml version="1.0" encoding="utf-8"?>
<!-- Generator: Adobe Illustrator 26.2.1, SVG Export Plug-In . SVG Version: 6.00 Build 0)  -->
<svg version="1.1" id="图层_1" xmlns="http://www.w3.org/2000/svg" xmlns:xlink="http://www.w3.org/1999/xlink" x="0px" y="0px"
	 viewBox="0 0 512 512" style="enable-background:new 0 0 512 512;" xml:space="preserve">
<style type="text/css">
	.st0{fill:#71B21F;}
	.st1{fill:#FFFFFF;}
</style>
<circle class="st0" cx="256" cy="256" r="255"/>
<path class="st1" d="M447.3,282.7l-85.1-85.1l-85.1-85.1c-11.6-11.6-30.3-11.6-41.9,0l-85.2,85.2L64.7,283
	c-11.6,11.6-11.6,30.3,0,41.9l74.7,74.7c11.6,11.6,30.3,11.6,41.9,0l74.9-74.9l0,0l74.7,74.7c11.6,11.6,30.3,11.6,41.9,0l74.7-74.7
	C458.9,313.1,458.9,294.3,447.3,282.7z M256.1,139.1l70.4,70.4l-69,69l-70.4-70.4L256.1,139.1z M160.3,372.9l-69-69l69-69l69,69
	L160.3,372.9z M351.7,372.7l-70.4-70.4l69-69l70.4,70.4L351.7,372.7z"/>
</svg>
