<?xml version="1.0" encoding="utf-8"?>
<!-- Generator: Adobe Illustrator 26.2.1, SVG Export Plug-In . SVG Version: 6.00 Build 0)  -->
<svg version="1.1" id="图层_1" xmlns="http://www.w3.org/2000/svg" xmlns:xlink="http://www.w3.org/1999/xlink" x="0px" y="0px"
	 viewBox="0 0 512 512" style="enable-background:new 0 0 512 512;" xml:space="preserve">
<style type="text/css">
	.st0{fill:#22B573;}
</style>
<g>
	<g>
		<path class="st0" d="M233,68.75v164H69v-164c0,0,0,0,0,0H233 M279,22.75H69c-25.41,0-46,20.59-46,46v210h256V22.75L279,22.75z"/>
	</g>
	<g>
		<path class="st0" d="M443,68.75L443,68.75C443,68.75,443,68.75,443,68.75v164c0,0,0,0,0,0H279v-164H443 M443,22.75H233v256h210
			c25.41,0,46-20.59,46-46v-164C489,43.34,468.41,22.75,443,22.75L443,22.75z"/>
	</g>
	<g>
		<path class="st0" d="M233,279.25v164c0,0,0,0,0,0H69c0,0,0,0,0,0v-164H233 M279,233.25H23v210c0,25.41,20.59,46,46,46h164
			c25.41,0,46-20.59,46-46V233.25L279,233.25z"/>
	</g>
</g>
</svg>
